<svg width="480" height="480" viewBox="0 0 480 480" fill="none" xmlns="http://www.w3.org/2000/svg">
<rect width="480" height="480" fill="#FDCA09"/>
<path d="M168.28 265.896C165.763 265.896 163.395 265.277 161.176 264.04C159 262.76 157.251 260.904 155.928 258.472C154.605 256.04 153.944 253.096 153.944 249.64V248.616C153.944 245.16 154.605 242.216 155.928 239.784C157.251 237.352 159 235.517 161.176 234.28C163.352 233 165.72 232.36 168.28 232.36C170.2 232.36 171.8 232.595 173.08 233.064C174.403 233.491 175.469 234.045 176.28 234.728C177.091 235.411 177.709 236.136 178.136 236.904H179.288V220.2H187.352V265H179.416V261.16H178.264C177.539 262.355 176.408 263.443 174.872 264.424C173.379 265.405 171.181 265.896 168.28 265.896ZM170.712 258.856C173.187 258.856 175.256 258.067 176.92 256.488C178.584 254.867 179.416 252.52 179.416 249.448V248.808C179.416 245.736 178.584 243.411 176.92 241.832C175.299 240.211 173.229 239.4 170.712 239.4C168.237 239.4 166.168 240.211 164.504 241.832C162.84 243.411 162.008 245.736 162.008 248.808V249.448C162.008 252.52 162.84 254.867 164.504 256.488C166.168 258.067 168.237 258.856 170.712 258.856ZM209.477 265.896C205.338 265.896 201.946 265 199.301 263.208C196.655 261.416 195.055 258.856 194.501 255.528L201.925 253.608C202.223 255.101 202.714 256.275 203.397 257.128C204.122 257.981 204.997 258.6 206.021 258.984C207.087 259.325 208.239 259.496 209.477 259.496C211.354 259.496 212.741 259.176 213.637 258.536C214.533 257.853 214.981 257.021 214.981 256.04C214.981 255.059 214.554 254.312 213.701 253.8C212.847 253.245 211.482 252.797 209.605 252.456L207.812 252.136C205.594 251.709 203.567 251.133 201.733 250.408C199.898 249.64 198.426 248.595 197.317 247.272C196.207 245.949 195.653 244.243 195.653 242.152C195.653 238.995 196.805 236.584 199.109 234.92C201.413 233.213 204.442 232.36 208.197 232.36C211.738 232.36 214.682 233.149 217.029 234.728C219.375 236.307 220.911 238.376 221.637 240.936L214.149 243.24C213.807 241.619 213.103 240.467 212.037 239.784C211.013 239.101 209.733 238.76 208.197 238.76C206.661 238.76 205.487 239.037 204.677 239.592C203.866 240.104 203.461 240.829 203.461 241.768C203.461 242.792 203.887 243.56 204.741 244.072C205.594 244.541 206.746 244.904 208.197 245.16L209.989 245.48C212.378 245.907 214.533 246.483 216.453 247.208C218.415 247.891 219.951 248.893 221.061 250.216C222.213 251.496 222.789 253.245 222.789 255.464C222.789 258.792 221.573 261.373 219.141 263.208C216.751 265 213.53 265.896 209.477 265.896ZM228.319 249.256V248.232C228.319 244.904 228.98 242.067 230.303 239.72C231.626 237.331 233.375 235.517 235.551 234.28C237.77 233 240.18 232.36 242.783 232.36C245.684 232.36 247.882 232.872 249.375 233.896C250.868 234.92 251.956 235.987 252.639 237.096H253.791V233.256H261.727V270.632C261.727 272.808 261.087 274.536 259.807 275.816C258.527 277.139 256.82 277.8 254.687 277.8H233.439V270.76H251.871C253.066 270.76 253.663 270.12 253.663 268.84V260.584H252.511C252.084 261.267 251.487 261.971 250.719 262.696C249.951 263.379 248.927 263.955 247.647 264.424C246.367 264.893 244.746 265.128 242.783 265.128C240.18 265.128 237.77 264.509 235.551 263.272C233.375 261.992 231.626 260.179 230.303 257.832C228.98 255.443 228.319 252.584 228.319 249.256ZM245.087 258.088C247.562 258.088 249.631 257.299 251.295 255.72C252.959 254.141 253.791 251.923 253.791 249.064V248.424C253.791 245.523 252.959 243.304 251.295 241.768C249.674 240.189 247.604 239.4 245.087 239.4C242.612 239.4 240.543 240.189 238.879 241.768C237.215 243.304 236.383 245.523 236.383 248.424V249.064C236.383 251.923 237.215 254.141 238.879 255.72C240.543 257.299 242.612 258.088 245.087 258.088ZM270.668 265V233.256H278.604V237.416H279.756C280.268 236.307 281.228 235.261 282.635 234.28C284.044 233.256 286.177 232.744 289.036 232.744C291.51 232.744 293.665 233.32 295.5 234.472C297.377 235.581 298.828 237.139 299.852 239.144C300.876 241.107 301.388 243.411 301.388 246.056V265H293.324V246.696C293.324 244.307 292.726 242.515 291.532 241.32C290.38 240.125 288.716 239.528 286.54 239.528C284.065 239.528 282.145 240.36 280.78 242.024C279.414 243.645 278.732 245.928 278.732 248.872V265H270.668ZM310.105 265V233.256H318.041V236.84H319.193C319.662 235.56 320.43 234.621 321.497 234.024C322.606 233.427 323.886 233.128 325.337 233.128H329.177V240.296H325.209C323.161 240.296 321.476 240.851 320.153 241.96C318.83 243.027 318.169 244.691 318.169 246.952V265H310.105Z" fill="white"/>
<rect x="327" y="257" width="8" height="8" fill="white"/>
</svg>
