<svg width="480" height="480" viewBox="0 0 480 480" fill="none" xmlns="http://www.w3.org/2000/svg">
<rect width="480" height="480" fill="white"/>
<path d="M96.2955 264V217.455H127.659V225.568H106.136V236.659H126.045V244.773H106.136V255.886H127.75V264H96.2955ZM143.392 229.091L149.801 241.295L156.369 229.091H166.301L156.188 246.545L166.574 264H156.688L149.801 251.932L143.028 264H133.028L143.392 246.545L133.392 229.091H143.392ZM186.574 264.682C182.998 264.682 179.922 263.924 177.347 262.409C174.786 260.879 172.816 258.758 171.438 256.045C170.074 253.333 169.392 250.212 169.392 246.682C169.392 243.106 170.081 239.97 171.46 237.273C172.854 234.561 174.831 232.447 177.392 230.932C179.953 229.402 182.998 228.636 186.528 228.636C189.574 228.636 192.241 229.189 194.528 230.295C196.816 231.402 198.627 232.955 199.96 234.955C201.294 236.955 202.028 239.303 202.165 242H193.028C192.771 240.258 192.089 238.856 190.983 237.795C189.892 236.72 188.46 236.182 186.688 236.182C185.188 236.182 183.877 236.591 182.756 237.409C181.65 238.212 180.786 239.386 180.165 240.932C179.544 242.477 179.233 244.348 179.233 246.545C179.233 248.773 179.536 250.667 180.142 252.227C180.763 253.788 181.634 254.977 182.756 255.795C183.877 256.614 185.188 257.023 186.688 257.023C187.794 257.023 188.786 256.795 189.665 256.341C190.559 255.886 191.294 255.227 191.869 254.364C192.46 253.485 192.847 252.432 193.028 251.205H202.165C202.013 253.871 201.286 256.22 199.983 258.25C198.695 260.265 196.915 261.841 194.642 262.977C192.369 264.114 189.68 264.682 186.574 264.682ZM218.045 217.455V264H208.364V217.455H218.045ZM248.188 249.136V229.091H257.869V264H248.574V257.659H248.21C247.422 259.705 246.112 261.348 244.278 262.591C242.46 263.833 240.241 264.455 237.619 264.455C235.286 264.455 233.233 263.924 231.46 262.864C229.688 261.803 228.301 260.295 227.301 258.341C226.316 256.386 225.816 254.045 225.801 251.318V229.091H235.483V249.591C235.498 251.652 236.051 253.28 237.142 254.477C238.233 255.674 239.695 256.273 241.528 256.273C242.695 256.273 243.786 256.008 244.801 255.477C245.816 254.932 246.634 254.129 247.256 253.068C247.892 252.008 248.203 250.697 248.188 249.136ZM294.659 239.045L285.795 239.591C285.644 238.833 285.318 238.152 284.818 237.545C284.318 236.924 283.659 236.432 282.841 236.068C282.038 235.689 281.076 235.5 279.955 235.5C278.455 235.5 277.189 235.818 276.159 236.455C275.129 237.076 274.614 237.909 274.614 238.955C274.614 239.788 274.947 240.492 275.614 241.068C276.28 241.644 277.424 242.106 279.045 242.455L285.364 243.727C288.758 244.424 291.288 245.545 292.955 247.091C294.621 248.636 295.455 250.667 295.455 253.182C295.455 255.47 294.78 257.477 293.432 259.205C292.098 260.932 290.265 262.28 287.932 263.25C285.614 264.205 282.939 264.682 279.909 264.682C275.288 264.682 271.606 263.72 268.864 261.795C266.136 259.856 264.538 257.22 264.068 253.886L273.591 253.386C273.879 254.795 274.576 255.871 275.682 256.614C276.788 257.341 278.205 257.705 279.932 257.705C281.629 257.705 282.992 257.379 284.023 256.727C285.068 256.061 285.598 255.205 285.614 254.159C285.598 253.28 285.227 252.561 284.5 252C283.773 251.424 282.652 250.985 281.136 250.682L275.091 249.477C271.682 248.795 269.144 247.614 267.477 245.932C265.826 244.25 265 242.106 265 239.5C265 237.258 265.606 235.326 266.818 233.705C268.045 232.083 269.765 230.833 271.977 229.955C274.205 229.076 276.811 228.636 279.795 228.636C284.205 228.636 287.674 229.568 290.205 231.432C292.75 233.295 294.235 235.833 294.659 239.045ZM301.551 264V229.091H311.233V264H301.551ZM306.415 224.591C304.975 224.591 303.741 224.114 302.71 223.159C301.695 222.189 301.188 221.03 301.188 219.682C301.188 218.348 301.695 217.205 302.71 216.25C303.741 215.28 304.975 214.795 306.415 214.795C307.854 214.795 309.081 215.28 310.097 216.25C311.127 217.205 311.642 218.348 311.642 219.682C311.642 221.03 311.127 222.189 310.097 223.159C309.081 224.114 307.854 224.591 306.415 224.591ZM351.534 229.091L339.33 264H328.42L316.216 229.091H326.443L333.693 254.068H334.057L341.284 229.091H351.534ZM371.273 264.682C367.682 264.682 364.591 263.955 362 262.5C359.424 261.03 357.439 258.955 356.045 256.273C354.652 253.576 353.955 250.386 353.955 246.705C353.955 243.114 354.652 239.962 356.045 237.25C357.439 234.538 359.402 232.424 361.932 230.909C364.477 229.394 367.462 228.636 370.886 228.636C373.189 228.636 375.333 229.008 377.318 229.75C379.318 230.477 381.061 231.576 382.545 233.045C384.045 234.515 385.212 236.364 386.045 238.591C386.879 240.803 387.295 243.394 387.295 246.364V249.023H357.818V243.023H378.182C378.182 241.629 377.879 240.394 377.273 239.318C376.667 238.242 375.826 237.402 374.75 236.795C373.689 236.174 372.455 235.864 371.045 235.864C369.576 235.864 368.273 236.205 367.136 236.886C366.015 237.553 365.136 238.455 364.5 239.591C363.864 240.712 363.538 241.962 363.523 243.341V249.045C363.523 250.773 363.841 252.265 364.477 253.523C365.129 254.78 366.045 255.75 367.227 256.432C368.409 257.114 369.811 257.455 371.432 257.455C372.508 257.455 373.492 257.303 374.386 257C375.28 256.697 376.045 256.242 376.682 255.636C377.318 255.03 377.803 254.288 378.136 253.409L387.091 254C386.636 256.152 385.705 258.03 384.295 259.636C382.902 261.227 381.098 262.47 378.886 263.364C376.689 264.242 374.152 264.682 371.273 264.682Z" fill="black"/>
</svg>
