<svg width="480" height="480" viewBox="0 0 480 480" fill="none" xmlns="http://www.w3.org/2000/svg">
<rect width="480" height="480" fill="#090D1F"/>
<path d="M84.5455 224.523V217.455H121.682V224.523H107.295V264H98.9318V224.523H84.5455ZM128.841 264V217.455H137.273V237.159H158.841V217.455H167.295V264H158.841V244.227H137.273V264H128.841ZM176.466 264V217.455H206.739V224.523H184.898V237.159H205.17V244.227H184.898V256.932H206.92V264H176.466ZM231.216 264V217.455H249.034C252.398 217.455 255.193 217.985 257.42 219.045C259.663 220.091 261.337 221.523 262.443 223.341C263.564 225.159 264.125 227.22 264.125 229.523C264.125 231.417 263.761 233.038 263.034 234.386C262.307 235.72 261.33 236.803 260.102 237.636C258.875 238.47 257.504 239.068 255.989 239.432V239.886C257.64 239.977 259.223 240.485 260.739 241.409C262.269 242.318 263.519 243.606 264.489 245.273C265.458 246.939 265.943 248.955 265.943 251.318C265.943 253.727 265.36 255.894 264.193 257.818C263.027 259.727 261.269 261.235 258.92 262.341C256.572 263.447 253.617 264 250.057 264H231.216ZM239.648 256.955H248.716C251.777 256.955 253.981 256.371 255.33 255.205C256.693 254.023 257.375 252.508 257.375 250.659C257.375 249.28 257.034 248.038 256.352 246.932C255.67 245.811 254.701 244.932 253.443 244.295C252.186 243.644 250.686 243.318 248.943 243.318H239.648V256.955ZM239.648 237.25H247.989C249.443 237.25 250.754 236.985 251.92 236.455C253.087 235.909 254.004 235.144 254.67 234.159C255.352 233.159 255.693 231.977 255.693 230.614C255.693 228.811 255.057 227.326 253.784 226.159C252.527 224.992 250.655 224.409 248.17 224.409H239.648V237.25ZM273.278 264V217.455H281.71V256.932H302.21V264H273.278ZM349.307 240.727C349.307 245.742 348.367 250.038 346.489 253.614C344.625 257.174 342.08 259.902 338.852 261.795C335.64 263.689 331.996 264.636 327.92 264.636C323.845 264.636 320.193 263.689 316.966 261.795C313.754 259.886 311.208 257.152 309.33 253.591C307.466 250.015 306.534 245.727 306.534 240.727C306.534 235.712 307.466 231.424 309.33 227.864C311.208 224.288 313.754 221.553 316.966 219.659C320.193 217.765 323.845 216.818 327.92 216.818C331.996 216.818 335.64 217.765 338.852 219.659C342.08 221.553 344.625 224.288 346.489 227.864C348.367 231.424 349.307 235.712 349.307 240.727ZM340.83 240.727C340.83 237.197 340.277 234.22 339.17 231.795C338.08 229.356 336.564 227.515 334.625 226.273C332.686 225.015 330.451 224.386 327.92 224.386C325.39 224.386 323.155 225.015 321.216 226.273C319.277 227.515 317.754 229.356 316.648 231.795C315.557 234.22 315.011 237.197 315.011 240.727C315.011 244.258 315.557 247.242 316.648 249.682C317.754 252.106 319.277 253.947 321.216 255.205C323.155 256.447 325.39 257.068 327.92 257.068C330.451 257.068 332.686 256.447 334.625 255.205C336.564 253.947 338.08 252.106 339.17 249.682C340.277 247.242 340.83 244.258 340.83 240.727ZM388.46 232.318C388.081 231.091 387.559 229.992 386.892 229.023C386.241 228.038 385.453 227.197 384.528 226.5C383.619 225.803 382.574 225.28 381.392 224.932C380.21 224.568 378.922 224.386 377.528 224.386C375.028 224.386 372.801 225.015 370.847 226.273C368.892 227.53 367.354 229.379 366.233 231.818C365.127 234.242 364.574 237.197 364.574 240.682C364.574 244.197 365.127 247.174 366.233 249.614C367.339 252.053 368.877 253.909 370.847 255.182C372.816 256.439 375.104 257.068 377.71 257.068C380.074 257.068 382.119 256.614 383.847 255.705C385.589 254.795 386.93 253.508 387.869 251.841C388.809 250.159 389.278 248.189 389.278 245.932L391.188 246.227H378.551V239.636H397.438V245.227C397.438 249.212 396.589 252.659 394.892 255.568C393.195 258.477 390.862 260.72 387.892 262.295C384.922 263.856 381.513 264.636 377.665 264.636C373.377 264.636 369.612 263.674 366.369 261.75C363.142 259.811 360.619 257.061 358.801 253.5C356.998 249.924 356.097 245.682 356.097 240.773C356.097 237.015 356.627 233.659 357.688 230.705C358.763 227.75 360.263 225.242 362.188 223.182C364.112 221.106 366.369 219.53 368.96 218.455C371.551 217.364 374.369 216.818 377.415 216.818C379.991 216.818 382.392 217.197 384.619 217.955C386.847 218.697 388.824 219.758 390.551 221.136C392.294 222.515 393.725 224.152 394.847 226.045C395.968 227.939 396.703 230.03 397.051 232.318H388.46Z" fill="white"/>
<rect x="82" y="285" width="319" height="3" fill="#D9D9D9"/>
<rect x="82" y="193" width="319" height="3" fill="#D9D9D9"/>
</svg>
