<svg width="480" height="480" viewBox="0 0 480 480" fill="none" xmlns="http://www.w3.org/2000/svg">
<rect width="480" height="480" fill="#2EA0D0"/>
<path d="M150.931 265.896C147.859 265.896 145.064 265.213 142.547 263.848C140.072 262.44 138.088 260.413 136.595 257.768C135.144 255.08 134.419 251.816 134.419 247.976V237.224C134.419 231.464 136.04 227.048 139.283 223.976C142.525 220.861 146.92 219.304 152.467 219.304C157.971 219.304 162.216 220.776 165.203 223.72C168.232 226.621 169.747 230.568 169.747 235.56V235.816H161.427V235.304C161.427 233.725 161.085 232.296 160.403 231.016C159.763 229.736 158.781 228.733 157.459 228.008C156.136 227.24 154.472 226.856 152.467 226.856C149.48 226.856 147.133 227.773 145.427 229.608C143.72 231.443 142.867 233.939 142.867 237.096V248.104C142.867 251.219 143.72 253.736 145.427 255.656C147.133 257.533 149.523 258.472 152.595 258.472C155.667 258.472 157.907 257.661 159.315 256.04C160.723 254.419 161.427 252.371 161.427 249.896V249.256H150.803V242.088H169.747V265H161.939V260.712H160.787C160.488 261.437 159.997 262.205 159.315 263.016C158.675 263.827 157.693 264.509 156.371 265.064C155.048 265.619 153.235 265.896 150.931 265.896ZM178.074 265V233.256H186.01V236.84H187.162C187.631 235.56 188.399 234.621 189.466 234.024C190.575 233.427 191.855 233.128 193.306 233.128H197.146V240.296H193.178C191.13 240.296 189.444 240.851 188.122 241.96C186.799 243.027 186.138 244.691 186.138 246.952V265H178.074ZM217.428 265.896C214.27 265.896 211.433 265.256 208.916 263.976C206.398 262.696 204.414 260.84 202.964 258.408C201.513 255.976 200.788 253.053 200.788 249.64V248.616C200.788 245.203 201.513 242.28 202.964 239.848C204.414 237.416 206.398 235.56 208.916 234.28C211.433 233 214.27 232.36 217.428 232.36C220.585 232.36 223.422 233 225.94 234.28C228.457 235.56 230.441 237.416 231.892 239.848C233.342 242.28 234.068 245.203 234.068 248.616V249.64C234.068 253.053 233.342 255.976 231.892 258.408C230.441 260.84 228.457 262.696 225.94 263.976C223.422 265.256 220.585 265.896 217.428 265.896ZM217.428 258.728C219.902 258.728 221.95 257.939 223.572 256.36C225.193 254.739 226.004 252.435 226.004 249.448V248.808C226.004 245.821 225.193 243.539 223.572 241.96C221.993 240.339 219.945 239.528 217.428 239.528C214.953 239.528 212.905 240.339 211.284 241.96C209.662 243.539 208.852 245.821 208.852 248.808V249.448C208.852 252.435 209.662 254.739 211.284 256.36C212.905 257.939 214.953 258.728 217.428 258.728ZM265.319 277.8V261.352H264.167C263.741 262.077 263.122 262.803 262.311 263.528C261.501 264.211 260.434 264.765 259.111 265.192C257.831 265.661 256.231 265.896 254.311 265.896C251.751 265.896 249.383 265.277 247.207 264.04C245.031 262.76 243.282 260.904 241.959 258.472C240.637 256.04 239.975 253.096 239.975 249.64V248.616C239.975 245.16 240.637 242.216 241.959 239.784C243.282 237.352 245.031 235.517 247.207 234.28C249.426 233 251.794 232.36 254.311 232.36C257.213 232.36 259.41 232.851 260.903 233.832C262.439 234.771 263.57 235.859 264.295 237.096H265.447V233.256H273.383V277.8H265.319ZM256.743 258.856C259.261 258.856 261.33 258.067 262.951 256.488C264.615 254.867 265.447 252.52 265.447 249.448V248.808C265.447 245.736 264.615 243.411 262.951 241.832C261.287 240.211 259.218 239.4 256.743 239.4C254.269 239.4 252.199 240.211 250.535 241.832C248.871 243.411 248.039 245.736 248.039 248.808V249.448C248.039 252.52 248.871 254.867 250.535 256.488C252.199 258.067 254.269 258.856 256.743 258.856ZM294.496 265L306.272 220.2H320.992L332.768 265H324.064L321.632 255.144H305.632L303.2 265H294.496ZM307.616 247.336H319.648L314.208 225.512H313.056L307.616 247.336ZM338.13 265V220.2H346.578V265H338.13Z" fill="white"/>
</svg>
